<mxfile host="app.diagrams.net" modified="2022-03-18T18:26:12.772Z" agent="5.0 (Windows NT 10.0; Win64; x64) AppleWebKit/537.36 (KHTML, like Gecko) Chrome/99.0.4844.51 Safari/537.36" etag="L4W1jAvJWegwzjjTf3i4" version="17.0.0" type="github">
  <diagram id="vxr45gkVdm4c-CZZXgr1" name="Page-1">
    <mxGraphModel dx="4064" dy="2534" grid="1" gridSize="10" guides="1" tooltips="1" connect="1" arrows="1" fold="1" page="1" pageScale="1" pageWidth="850" pageHeight="1100" math="0" shadow="0">
      <root>
        <mxCell id="0" />
        <mxCell id="1" parent="0" />
        <mxCell id="zo9zDIyggi7vnf_DUEA--53" value="" style="rounded=0;whiteSpace=wrap;html=1;labelBackgroundColor=#FCFCFC;fontSize=24;fontColor=#000099;strokeColor=#9933FF;" vertex="1" parent="1">
          <mxGeometry x="-100" y="-120" width="900" height="1000" as="geometry" />
        </mxCell>
        <mxCell id="zo9zDIyggi7vnf_DUEA--1" value="" style="whiteSpace=wrap;html=1;aspect=fixed;" vertex="1" parent="1">
          <mxGeometry x="80" y="120" width="680" height="680" as="geometry" />
        </mxCell>
        <mxCell id="zo9zDIyggi7vnf_DUEA--2" value="" style="whiteSpace=wrap;html=1;aspect=fixed;strokeColor=#99CCFF;" vertex="1" parent="1">
          <mxGeometry x="120" y="160" width="600" height="600" as="geometry" />
        </mxCell>
        <mxCell id="zo9zDIyggi7vnf_DUEA--3" value="" style="whiteSpace=wrap;html=1;aspect=fixed;strokeColor=#FF9933;" vertex="1" parent="1">
          <mxGeometry x="160" y="200" width="520" height="520" as="geometry" />
        </mxCell>
        <mxCell id="zo9zDIyggi7vnf_DUEA--16" value="" style="rounded=0;whiteSpace=wrap;html=1;strokeColor=#00FF00;" vertex="1" parent="1">
          <mxGeometry x="210" y="240" width="440" height="160" as="geometry" />
        </mxCell>
        <mxCell id="zo9zDIyggi7vnf_DUEA--4" value="" style="outlineConnect=0;dashed=0;verticalLabelPosition=bottom;verticalAlign=top;align=center;html=1;shape=mxgraph.aws3.virtual_private_cloud;fillColor=#F58534;gradientColor=none;" vertex="1" parent="1">
          <mxGeometry x="50" y="80" width="79.5" height="54" as="geometry" />
        </mxCell>
        <mxCell id="zo9zDIyggi7vnf_DUEA--6" value="" style="outlineConnect=0;dashed=0;verticalLabelPosition=bottom;verticalAlign=top;align=center;html=1;shape=mxgraph.aws3.ec2;fillColor=#F58534;gradientColor=none;" vertex="1" parent="1">
          <mxGeometry x="141.5" y="640" width="96.5" height="93" as="geometry" />
        </mxCell>
        <mxCell id="zo9zDIyggi7vnf_DUEA--7" value="" style="shape=image;verticalLabelPosition=bottom;labelBackgroundColor=default;verticalAlign=top;aspect=fixed;imageAspect=0;image=data:image/png,iVBORw0KGgoAAAANSUhEUgAAAaQAAAB4CAMAAACKGXbnAAAAkFBMVEX///8AAADzcCr19fXzbydBQUHzax/zahunp6fyZxCZmZk5OTnx8fFvb29JSUno6OhaWlrV1dWNjY2ysrLBwcHNzc2fn5/c3NwPDw9lZWWCgoL+9fAnJydTU1P6x7DyZAB6enr2m3H70sAvLy/2lGT5uZz1i1cdHR3828z95Nf97ej0ejzzdzH4rov3pH30gkc8Rw7VAAAOS0lEQVR4nO1c6WKzuA5NCoGQBcKSjewhzdI06fu/3cULtrwBnek3kzv1+dWCMbaOJcuSSKdjYWFhYWFhYWFhYWFhYWFhYWFhYWFhYWFhYWFhYWFhYWFhYWFhYWFhYWFhYWHxEvg4vj8Oh+dje1v920Ox0GK1PbuB75Xwg+D+vP7b47FQsHq8BZ77VsH1dmdL04vh+Olzhgi84PBbjJ4zGZYo+v/YC/cFeuH4ew89d5QiZOr8SqP8t1+iTM6wizD4x144we8Lv/XMl091Jzg9ttvt82sXYJ7cYPuHRvlacHqvTxLhyNsdmOKstp+Ypl/C0v8BSScf03G6CVe3nocu+7/B4r0+Se8B9ube5esfhDz3F3gPL0/SjXB01Nw6IJa808+N7VXx8iSdkFXzdRx1VliXdv99g/fqJF13JQ+BYusIVvfSe3C/fmpoL4tXJwkpkpmGY/ArVOnFSfpALARmFg4lh97zZ0b2unhxkt79ent2DZBX8SMDe2G8OEnI2tUeWL/cWk37b+C1SVp9lhzs6k5Cj1LV/MePjOx18dokoS3Jvde1QPbOO/zEwF4Yr03SsZGCj9JFd89t+nJGo1FDi3aDQmjsqm1fTlNPuNFLk7QNGo1Zg2dBMO+Pw2K9Xg/DfRqr8nPidLzpFethb5JkkfxsTDEn/0fpMhyu171xKrfErafJJOwNi2IYLpOp1ELuKh6XL11M5dHM4zTJ93mfPW4kyZlP+0k+SGPdUL4DJ86SPGFv/BZJ2Lm7n8+n5/ZmaFLuWu5bbfzOScMuxDCfC/fn+wLevoxFqa2rG2v033R54S0TSQvivCe8qbsex/D+sLreQ/9FY/JPJgw2W/LRXMI9fl5PkpONh7zlQOTJGW9KhKksjCRElxPx4nRcvXOxxJP/Bkm3xx3nI1zX8wL366HlCYf2zlszTTGbCcMCCHe0V253N1C0/PHyn4HYcAgaOv2wq8EYvIs1KMp/skVXJanfk5+fdQwkpfK8EmgiHCJ2JZlLFoaQc60WC8Uk+gZJH08Ppsxd1/c0hm+1I+nAuyFy1OlrBNfjt5moRAB5cNGX61BpyFlS7xGsud5OqmuX8sWsAScp1tCMdEFD0mipNh0CC0GTuS1Iyi5yP9PWJG1dparBDdSINw6S43tnraLpOOpybR/obovTYJLtjlK13YUtX81NggUzRFywnYgvDkbSTPc0UkSVpPla1xbw3ZoknYAiMtBGkg60qsH1A8/3A0rYTiFiG7DCFF2ofKqdC9t0TKsfzoNLVks4a+cYu2KT5XYF9MokCxfMYr0mCxxvhApJEWs4yfsp2AkZS21J4kurmOT7CVk64UYctwFnWtXgfT2O1+v1+Pjy9GkJFLx7w0naN3enmDxH3Y9KXKqlbVz8CJW6jesalWA2RvsujBltwbe/CNzNpMFcBlOinnG6IaOQSXIWUscjttqYQ9iOpHn1XOVMpcCJaiCJcOT5wFe4PQI/UHztFaocCrYnUpiykwNI2rXPXj7X3mWYypLVY1+9zKyWlaOSsyuQeUIS03lBrhGWnUwSWejdAvgkEd1ZhvT/liRVAwQOEFfoepJwyvVtJ9XV3R6qc4CsHTrLXj/JI5LFAxsxXirOFLlPOb0reFLlsSfKBK0ZkvWcdxtQvQyLeTMgx6doBvdjuuL1NGKSKuXo6c62EklU5wrhwFd1QA1AO5LogNbCS9nKriUJVzUoAtcBZ/1IAPaJfXFf2LSAUdmzi9PqHASNXXWiFPawPpxIheUs7YvKxfaBUoxwtqDVpqPrCj5Pl0JPG6mQSCJ0LKQDbNyFl1uRVG2j4rmR7Zd1JN1ct20q74n0JyAKh1kSKx5iLgn5WF8CHmHZ7QxcDLHEBMkWc7lj4Cv2RQmDDZFKTiEpHOfLIXo3XU4XfeRAJImudIP8qda2Immg76niro4k7Au00aPOEXHEwkbYSAbwOSDxTHkYKg04gUOLhy01lCxbvZDLpWl4udSTRNJiECFW4UpQAgQEIknkn0LROUp0QR5pQxJZpkOlp7yRpJv31jL7cEQqx1N+K5Rb8mCwFfAQKrYe2ixwE3oTePOCkuVCBPtZoR+dA90WIizhVBYCraEiHep7EkmiXCRqsyVYEG1IolNVQ4JxI0lPryk9QbHFNeEgJUiKVoCZhAIfyqsUbOx7eJ0fXskoIUm8Vaq9iuFE01k+3oQhsKfEV4GnVcGyxZBKFQJJtBONYaTqjSfahqSBsad1A0kfKM+nL+ESscUHXB8WOJykiodIiHiEM6hN8KQi8AeWO7ZugCRwUIe7khAzS8dK+I09CUnqa95pym8IJBELEGra0unid7UhaWzsqddA0rExz0eAT0iidSMVD3fguMsBrjHfmuCuIphCKH5kOQBJM95qpCUpSpRAGAHZt2bah9g4TdZOIIlKP9e1I7fWoFkdSTQGu9d01BS7Q25Dmx3php2Gs3iUekMeOfDC1ahQUWmN0V7JwQBAEpwyCMwyjvVnZ4QJvj+TL1QIzYJHgCTR1THTtVvy6bQgifakSyU2xe7Q7t+qCv/uu4GctEX7mQ+PvJqYDnUhgFUTd35oI9Ec25O0MXKkkiTs+9HaLHgESBJdQ6q3yoeKfcbWJOk8ygaSUOmJYLGMuJ0+lQgETrcLZXi6gJrsWYuDGYFHkk57khwhdfg9ki56iVbQkKQ59zFNRjtpe5J0dDeQhE6yxnT4+67heyTkvksV/LrlLW014l7ggFjSd0iq0aN/iiS6z+IAWDNJNTrZQNLVN38oUbrYrpqsgMAkSWUpmljM2hHM3UVoPwIaMeu0JknMTBV5Muj3eZtWJP1tc0f32T+uSXUkoYqHelVaYT2UjOVcXeOJuMkLzSOQT0P2uh1J0N3ojknwaNSapIKToIOGJG1sAnjyf3RPuqoGi2GLCiEbSZI1qcR0L3nGC0fw7gR3GIpbsos1JEFFqtZm1JYkSsLeNC2Nd6cllLpJ+JG/5d01uOB1e9K2sVpVsycRjFIQSMByhN65YODhDaQR7UgC2sqWZmuSqFAM8SXpnGQ+3VAviXRjqAKD56S1saewnqQ67665VBJFXE0fWcSQpr6Q7RYkBsKiOPTYiiTAB49XAp1sIInGEU3Vc0LEgYhZja+yQezxPyFnA2IJLpuNWlFPUgdliDy9d4CrVeUdRwCuDDfVDcFDUy5kKkD1kJBxx3NpR5LMB0J7kqjtNXkOAkl0PHO1GYzdUdXuSU1oT2PYk7o0KNsNEQeDnF0poKDgs/YbCyC0sX4X6YiRiAxMpTVJS11XDSTRx2WRVhBIinUdYGyg0EH0QX0RISkzLQ06cDNJ25rY3bMhZHSTY3dSSTaX0V6M0XHjMQK+3QX71t8liU8NHLgaSKpC763ySWSEayX3QmP+YhY4FtskkCRq8dV8UtFEUl0UHAdfPz+Mz+Lv/uCm1V/MwAhA5gKJG1YiMtsNN64Ezqs1ScwNgcURTSTRtSunxClEkhJtD0yRqFWgaiLGA6utk053r04LDKYun3SoySehoiDf4BiUiiTnk/AutEzpmovALoRmIkRfe1i0U1hzSGt82pEEfPwF3i4iIQLfRFIVU1JXNb4rkFQF4KVTKBVtFT6plo2gcNWYKEliWQR7WzXGusysb87MvuNfbjBtOkpmljkBkzzfC2keYch0qL1QLDmmlLRzwQUPf5jnUsFwE0ksc1LodEkqRKEjWsx1HbDjxAa+mYB5TmOxjZCA5If55hoHPRMoF2EyeLjGQaiNMBbWERFFhuSPOLt2JNXWWVYbRQ1JbMUshH0pI/Ve0qGHvnuh8Xdy5cqy0qU57gU/W5FUCQj0hB/rYaJMfgzCDaXz9D8adMSlqp7WDX+o1UImya2pUdEXIdM21dzakeToi7MrNJPEOyhmceR0nFGU5QVZKjJJzOep6k7nFcUbbi5ZVP4yiKNRNCVqNMNXmQfKJrfJyneO4pS8Kcat6kgi9d2uxnnYkkLVkiXFD1/h6i7XE5TMVCHM1o15/XML0DLAWq9KzSQJvsel6BUF0XMsbzl8wNPKm/2gz22rUG4Dcs+XNR3unlDHbSA3+eid9M8Z8e+MmWIMbLhc/yEqzMeTfWfhuVII73rWVLDqK8EFR3dqUIANn23bVIVajhxy4siirCWpM9cmpHBIW4nxZLqm3YnolqsjGtOuNrzRRGnU3dMAkzFMhbEiIvfv71wxPrZ3WiBOfujufOQU3g6kZF+q2I/U93fFD79kJ6wCDHm1zszKeruJeCEEOYjVk9RxdBXNhu+TppoFKPfpyASgDQv7CtCQKVSibvALL51arMjvELr+5+H9+vFxO76f3oipCw7HO/mGIrg/t+je9nEmP/jpBrJLON8rilLMZCc3k6e72Atuk74QBRyMmZc7ELzDpLTxzDMhXm4DSaXolawKrm/V/bynk0tuz1LjFwqsF9jK40W5hkJIBQ3u4VZkVWjHyLE60B/w9Pxgt2O/u4p5uNFf+6zu0Z9k9dSfxEMV+nmPS2o91iY046Rg4l2EfWmys2GPQijdGzNMeEQ1qRbFJce9JMuqEf435V2ZsrBxwsd76c3IcnFy1MVSikdE4FvgItHE8jrIo6hmVqRkmAkag1jG5bAvOy9Lul2TgRvGyPFOLJgAysOKfukifAXof5ljdtMsS7Os7hPtskmaDNJs2uKD/VrMs36SZnqJtYQTl8NF423+mYEoK1/Xz+reNypblBNr+Dw9Kqffb/NGCbeTL9DkesGh2qKuX4F4z38zxr4t/ihuT2znEErL5h2g37097wKvurf7fP8FP/L5sri+n+6fb/dz6T/It1bHx+n8+fn5Zf6NBwsLCwsLCwsLCwsLCwsLCwsLCwsLCwsLCwsLCwsLCwsLCwsLCwsLCwsLCwsLCwsLCwsLC4u/gP8Bf0/fcSO5fRoAAAAASUVORK5CYII=;" vertex="1" parent="1">
          <mxGeometry x="312" y="564.35" width="172.5" height="49.29" as="geometry" />
        </mxCell>
        <mxCell id="zo9zDIyggi7vnf_DUEA--20" style="edgeStyle=orthogonalEdgeStyle;rounded=0;orthogonalLoop=1;jettySize=auto;html=1;exitX=0.5;exitY=0;exitDx=0;exitDy=0;" edge="1" parent="1" source="zo9zDIyggi7vnf_DUEA--12" target="zo9zDIyggi7vnf_DUEA--13">
          <mxGeometry relative="1" as="geometry" />
        </mxCell>
        <mxCell id="zo9zDIyggi7vnf_DUEA--12" value="" style="shape=image;html=1;verticalAlign=top;verticalLabelPosition=bottom;labelBackgroundColor=#ffffff;imageAspect=0;aspect=fixed;image=https://cdn4.iconfinder.com/data/icons/socialcones/508/Github-128.png" vertex="1" parent="1">
          <mxGeometry x="-69" y="438.49999999999994" width="68" height="68" as="geometry" />
        </mxCell>
        <mxCell id="zo9zDIyggi7vnf_DUEA--13" value="" style="shape=image;verticalLabelPosition=bottom;labelBackgroundColor=default;verticalAlign=top;aspect=fixed;imageAspect=0;image=https://cdn.worldvectorlogo.com/logos/webhooks.svg;" vertex="1" parent="1">
          <mxGeometry x="-70" y="292.23999999999995" width="70" height="65.29" as="geometry" />
        </mxCell>
        <mxCell id="zo9zDIyggi7vnf_DUEA--14" value="" style="shape=image;html=1;verticalAlign=top;verticalLabelPosition=bottom;labelBackgroundColor=#ffffff;imageAspect=0;aspect=fixed;image=https://cdn0.iconfinder.com/data/icons/job-seeker/256/test_job_seeker_employee_unemployee_work-128.png;strokeColor=#99CCFF;" vertex="1" parent="1">
          <mxGeometry x="566" y="550" width="88" height="88" as="geometry" />
        </mxCell>
        <mxCell id="zo9zDIyggi7vnf_DUEA--17" value="" style="rounded=0;whiteSpace=wrap;html=1;strokeColor=#9933FF;" vertex="1" parent="1">
          <mxGeometry x="290" y="280" width="340" height="100" as="geometry" />
        </mxCell>
        <mxCell id="zo9zDIyggi7vnf_DUEA--11" value="" style="shape=image;verticalLabelPosition=bottom;labelBackgroundColor=default;verticalAlign=top;aspect=fixed;imageAspect=0;image=https://logowik.com/content/uploads/images/jenkins8460.jpg;" vertex="1" parent="1">
          <mxGeometry x="238" y="262" width="113.75" height="85.32" as="geometry" />
        </mxCell>
        <mxCell id="zo9zDIyggi7vnf_DUEA--10" value="" style="shape=image;verticalLabelPosition=bottom;labelBackgroundColor=default;verticalAlign=top;aspect=fixed;imageAspect=0;image=data:image/png,iVBORw0KGgoAAAANSUhEUgAAAOEAAADhCAMAAAAJbSJIAAAAolBMVEUieb/////MzMw4hsXU0c0nfMAyhMRrn9AZdr5glsvb29sugMLm5uYygsPJycmoxOHN3e1sl8OOqcaEq9Wivt4Lc73v7+8AcLywyOP39/fR0dH1+fxQisHDyMvh7PbV1dWxvsrD2OyKtNp+osWitchBjci20OhypdPV5PJgnNDo8PeVut2Lstl5qtZSlc1umsScsshVjMGuvMmUrcegscW3x9rwVYieAAAIPElEQVR4nO3d60LiOBgG4JI0NTakihpGCgwgoqOOOqO7939rS1oqh6aHHEqCm3f+Nz6TNIUmXwh63z2B7T+g83jh6ccLTz9eqJXx4uVpBQlcPb4sxl02VJfuhOOHM0QohdH6HyUEPVpCdia8WBEKd0PR20NXjdWlI+GvFYGlROTpZzfN1aUb4Q2KysCsH4/fjZ0IX5HQx4NeumiwLl0IHwUj9CvkroMW69KB8PoLGFGCAh5EtqMW3Zhvsi7mhbfFEN3oiqBiakUL423WxbjwJ827iwSloLxzo+ioD0bjwieaT5plIDdmenJtutG6mBYuUEUHbpJ1I/lluNW6mBaeR7XAnEhfDbdaF8PCXxwgHqFfI5Xfic9mm62LYeELqe/BTS+SW7PN1sWw8C1qBAYBhfTRbLN1MSt8Xn9ZagQGwXqYGm22NmaFl6jhJixuRXS8LxlmhReEtgAGQUQWRtuti1nhS8WTvtSJR5xqzArvmqeZPOTCaLt1MSv83RIYoJMV4pZC/O2F7GSF7LsLr1sLj/dF3wvl4oVe2EW8UC5e6IVdxAvl4oVe2EW8UC5e+H8S2v8GPL68eT2TDmwJDPCq/UUfXy90VuPEwuc7SAilkWzavS3lIa2vSSklZHWjvG4sFN7s7iyQiYRQ8sqEqu7EEQjHT7LNH0EII6S4rFoWjle0ub3jC9fdeGZI+KYO7FYIiVIvloQvykMUNi//6gmh0q64Q+HPomm+JVQ6rYFBIHFVUuzjjKjCjHoofM0uJjHtHyn5fzxR+Ch0IBw3bIexmMy40hY+EBc7MA//z1fYa3Qg5IPUtqQya6LCyuqB8C2SmPGPHgSp/Ja4A6Gj92AREslvxDkUtttLYS1U/nPNodDhMcqDtIVtdjTZDNYWOn0XBiaEjg/SAD99e+G5rtC2oCle6IVeaD9e6IVeaD9e6IVeaD9e6IVeaD9e6IVeaD9e6IVeaD9e6IVeaD9e6IVeaD9e6IW9HmZYHNu0TfSFV8Is3yfIESW8vRDlYVF5pM+BEICwIvOriRNGUhEUnd0KTxArCSsTgvmAWTdWnxsaURK9Crafthdy5HzStrDp+MIc+VraCS4lXBuvLPdirZBvIo4WekIQfiCrxiYhjA5PuT0QJuLsjVSrO8MahRCiuzphX5x4BrbMudVOFM+klO6Uou33YusKy1F/tjGG97anG3G2BXdo96w0mRrSUZwbw6WbxOIEWLh3pJ9clexo04/uVizktTV0ZxuqbB1wPyM6Ok6zZGVNZFsDJl3pPMrG6cT6h5vq8G6M3tSFOfGPw52YEbdHaitUq4/4QLWtqM2auD0DVqUef5iAcODwMM2IqPiAqnTiwHq6+XR5mAZBtB2mamcqpGDuthBtizHVhMNk6njtCf2qAVM8F2Pm8EM/C4qKclNF4RC4/ETkoVBP2Av/Oi5EVFMYu96HgW4fDh2/DwOsKxw7XwNWfL1QFT67/TxcC4uaaFXhwnUh+6MpfHF9omFTTeHK8fsQT4Ce8FLqHBMLYZ+hnvCs5U8EWAuZplrCn8Txsna8DGdawifq+AOfAhDrCG+J46dLsA+QDDWE/IfHnL4N2TIESfHXKgjHq8jhQ2wCvtgPAChuQwXhmB935vIgxX/XwKSvLHzODqxzeJCyAX+hm379wbLCBeRAd58VGF+le10oKRzf5SsfznYhm8zD/S6UEo5v6ObYNNsQcTCG95kPJCMF4fjyOtosQVodoxV7tjDD8P0j9+2O0ZLwUpiHi99nEH0tJNsEkoEo7+/L+znY+EAS96qFFecWEhrt/BisRSCeVO3Z2u6lSGa9GiFsPHvW7jS6Fjbth9nvQXmh5Ud9s3DvHlQQ2n5MNAmT2ainI7T/lKgVJkk6PPQJThWsvP+ofV+1kG/cSuNS/wmEVBziymsZ/DcWpz8U8spC24Km+J3sXuiF9uOFXuiF9uOFXuiF9uOFXuiF9uOFXtiN0OTuKdeEmGECJ5MJRMxQBbFTQszQ4HM+5SXSYDr/HAQm9vo5JMRscg92322GyR+ob3RHyOBH+dVteE91jc4I8bLixbtubaYjQowEHVh0o96M44YQk2n16kk4P33hLjBJQJrO0nSnEhxoVbs7IQzmBQ/E/c1yyWjUj0FRCv6hMVBdELLPzYaP2eFa3jDVLwV3QIgHGTBJRYtdG6NGFbELwuwmLC2mF8lLwdWLF+0L+c7OdQSLzZsMs05UrrG1L8y7sGo5licrBVc+WsO6ML8L61vMiKp3onUhu2/oQR5eCq56kI91IZpud5BXZz3dqA5T20I8SUEsbmcvMwAUP9hYFw7CRNzMfkaJ6iPRunAJqh6E+4nD9xMVfjbMo0VGYHmaQvZPm7uQJ1acTPWFepu72D/NE2mevjWh3v5Ydt+22ZGqUPt3SM+1XjKwf1u3qyhkv3WFeocGSggVT3+RaKFCOP+hI/yxaN3uhZoQzZovXS/UO+KqcyF+bztZVwr1zin7cdm63VuldthUuw8B0DkAqmsh21b3KgtTMCXqxI6FeAJafbCvFcb8+7cysVshptPqF0CthfxN0Vy5FzsVYjgFbb59Ngiz0+amqicidyjE+D172SoNLFXnzfLX0hOmMlZlhDIPXszYIKucPKxpUhEON++lp1fn8iVA3fQhgoPPablyUlXYi4s1lKoyuLq0v0v6UtctVkLk5xlRDWlavTTWFIl5oJ80X650efmHoVA4Umj7OMK0+bKthL0RUDV2KkzUgOJK51iR2KVQZRqtFvaGs0QF2ZkwScSVd+pCfnx3nIKKE9qrIyNsHZDGKnNok/D7xAtPP154+vHC089/BADf/LeGqPIAAAAASUVORK5CYII=;" vertex="1" parent="1">
          <mxGeometry x="552" y="310" width="40" height="40" as="geometry" />
        </mxCell>
        <mxCell id="zo9zDIyggi7vnf_DUEA--9" value="" style="shape=image;verticalLabelPosition=bottom;labelBackgroundColor=default;verticalAlign=top;aspect=fixed;imageAspect=0;image=https://magmax.org/images/python.png;" vertex="1" parent="1">
          <mxGeometry x="530" y="292.24" width="45" height="43.42" as="geometry" />
        </mxCell>
        <mxCell id="zo9zDIyggi7vnf_DUEA--18" value="" style="sketch=0;outlineConnect=0;fontColor=#232F3E;gradientColor=none;fillColor=#3F8624;strokeColor=none;dashed=0;verticalLabelPosition=bottom;verticalAlign=top;align=center;html=1;fontSize=12;fontStyle=0;aspect=fixed;pointerEvents=1;shape=mxgraph.aws4.iot_analytics_pipeline;" vertex="1" parent="1">
          <mxGeometry x="380" y="295.34" width="78" height="42" as="geometry" />
        </mxCell>
        <mxCell id="zo9zDIyggi7vnf_DUEA--19" value="" style="sketch=0;aspect=fixed;html=1;points=[];align=center;image;fontSize=12;image=img/lib/mscae/Docker.svg;strokeColor=#9933FF;" vertex="1" parent="1">
          <mxGeometry x="190" y="220" width="68" height="55.76" as="geometry" />
        </mxCell>
        <mxCell id="zo9zDIyggi7vnf_DUEA--26" value="" style="shape=image;verticalLabelPosition=bottom;labelBackgroundColor=default;verticalAlign=top;aspect=fixed;imageAspect=0;image=https://blog.pleets.org/img/articles/sonarqube-icon.jpg;" vertex="1" parent="1">
          <mxGeometry x="380" y="430" width="82" height="82" as="geometry" />
        </mxCell>
        <mxCell id="zo9zDIyggi7vnf_DUEA--40" style="edgeStyle=orthogonalEdgeStyle;rounded=0;orthogonalLoop=1;jettySize=auto;html=1;exitX=0.5;exitY=1;exitDx=0;exitDy=0;entryX=0.491;entryY=0.115;entryDx=0;entryDy=0;entryPerimeter=0;" edge="1" parent="1" source="zo9zDIyggi7vnf_DUEA--8" target="zo9zDIyggi7vnf_DUEA--7">
          <mxGeometry relative="1" as="geometry" />
        </mxCell>
        <mxCell id="zo9zDIyggi7vnf_DUEA--8" value="" style="shape=image;verticalLabelPosition=bottom;labelBackgroundColor=default;verticalAlign=top;aspect=fixed;imageAspect=0;image=data:image/png,iVBORw0KGgoAAAANSUhEUgAAAOEAAADhCAMAAAAJbSJIAAAAolBMVEUieb/////MzMw4hsXU0c0nfMAyhMRrn9AZdr5glsvb29sugMLm5uYygsPJycmoxOHN3e1sl8OOqcaEq9Wivt4Lc73v7+8AcLywyOP39/fR0dH1+fxQisHDyMvh7PbV1dWxvsrD2OyKtNp+osWitchBjci20OhypdPV5PJgnNDo8PeVut2Lstl5qtZSlc1umsScsshVjMGuvMmUrcegscW3x9rwVYieAAAIPElEQVR4nO3d60LiOBgG4JI0NTakihpGCgwgoqOOOqO7939rS1oqh6aHHEqCm3f+Nz6TNIUmXwh63z2B7T+g83jh6ccLTz9eqJXx4uVpBQlcPb4sxl02VJfuhOOHM0QohdH6HyUEPVpCdia8WBEKd0PR20NXjdWlI+GvFYGlROTpZzfN1aUb4Q2KysCsH4/fjZ0IX5HQx4NeumiwLl0IHwUj9CvkroMW69KB8PoLGFGCAh5EtqMW3Zhvsi7mhbfFEN3oiqBiakUL423WxbjwJ827iwSloLxzo+ioD0bjwieaT5plIDdmenJtutG6mBYuUEUHbpJ1I/lluNW6mBaeR7XAnEhfDbdaF8PCXxwgHqFfI5Xfic9mm62LYeELqe/BTS+SW7PN1sWw8C1qBAYBhfTRbLN1MSt8Xn9ZagQGwXqYGm22NmaFl6jhJixuRXS8LxlmhReEtgAGQUQWRtuti1nhS8WTvtSJR5xqzArvmqeZPOTCaLt1MSv83RIYoJMV4pZC/O2F7GSF7LsLr1sLj/dF3wvl4oVe2EW8UC5e6IVdxAvl4oVe2EW8UC5e+H8S2v8GPL68eT2TDmwJDPCq/UUfXy90VuPEwuc7SAilkWzavS3lIa2vSSklZHWjvG4sFN7s7iyQiYRQ8sqEqu7EEQjHT7LNH0EII6S4rFoWjle0ub3jC9fdeGZI+KYO7FYIiVIvloQvykMUNi//6gmh0q64Q+HPomm+JVQ6rYFBIHFVUuzjjKjCjHoofM0uJjHtHyn5fzxR+Ch0IBw3bIexmMy40hY+EBc7MA//z1fYa3Qg5IPUtqQya6LCyuqB8C2SmPGPHgSp/Ja4A6Gj92AREslvxDkUtttLYS1U/nPNodDhMcqDtIVtdjTZDNYWOn0XBiaEjg/SAD99e+G5rtC2oCle6IVeaD9e6IVeaD9e6IVeaD9e6IVeaD9e6IVeaD9e6IVeaD9e6IVeaD9e6IVeaD9e6IW9HmZYHNu0TfSFV8Is3yfIESW8vRDlYVF5pM+BEICwIvOriRNGUhEUnd0KTxArCSsTgvmAWTdWnxsaURK9Crafthdy5HzStrDp+MIc+VraCS4lXBuvLPdirZBvIo4WekIQfiCrxiYhjA5PuT0QJuLsjVSrO8MahRCiuzphX5x4BrbMudVOFM+klO6Uou33YusKy1F/tjGG97anG3G2BXdo96w0mRrSUZwbw6WbxOIEWLh3pJ9clexo04/uVizktTV0ZxuqbB1wPyM6Ok6zZGVNZFsDJl3pPMrG6cT6h5vq8G6M3tSFOfGPw52YEbdHaitUq4/4QLWtqM2auD0DVqUef5iAcODwMM2IqPiAqnTiwHq6+XR5mAZBtB2mamcqpGDuthBtizHVhMNk6njtCf2qAVM8F2Pm8EM/C4qKclNF4RC4/ETkoVBP2Av/Oi5EVFMYu96HgW4fDh2/DwOsKxw7XwNWfL1QFT67/TxcC4uaaFXhwnUh+6MpfHF9omFTTeHK8fsQT4Ce8FLqHBMLYZ+hnvCs5U8EWAuZplrCn8Txsna8DGdawifq+AOfAhDrCG+J46dLsA+QDDWE/IfHnL4N2TIESfHXKgjHq8jhQ2wCvtgPAChuQwXhmB935vIgxX/XwKSvLHzODqxzeJCyAX+hm379wbLCBeRAd58VGF+le10oKRzf5SsfznYhm8zD/S6UEo5v6ObYNNsQcTCG95kPJCMF4fjyOtosQVodoxV7tjDD8P0j9+2O0ZLwUpiHi99nEH0tJNsEkoEo7+/L+znY+EAS96qFFecWEhrt/BisRSCeVO3Z2u6lSGa9GiFsPHvW7jS6Fjbth9nvQXmh5Ud9s3DvHlQQ2n5MNAmT2ainI7T/lKgVJkk6PPQJThWsvP+ofV+1kG/cSuNS/wmEVBziymsZ/DcWpz8U8spC24Km+J3sXuiF9uOFXuiF9uOFXuiF9uOFXuiF9uOFXtiN0OTuKdeEmGECJ5MJRMxQBbFTQszQ4HM+5SXSYDr/HAQm9vo5JMRscg92322GyR+ob3RHyOBH+dVteE91jc4I8bLixbtubaYjQowEHVh0o96M44YQk2n16kk4P33hLjBJQJrO0nSnEhxoVbs7IQzmBQ/E/c1yyWjUj0FRCv6hMVBdELLPzYaP2eFa3jDVLwV3QIgHGTBJRYtdG6NGFbELwuwmLC2mF8lLwdWLF+0L+c7OdQSLzZsMs05UrrG1L8y7sGo5licrBVc+WsO6ML8L61vMiKp3onUhu2/oQR5eCq56kI91IZpud5BXZz3dqA5T20I8SUEsbmcvMwAUP9hYFw7CRNzMfkaJ6iPRunAJqh6E+4nD9xMVfjbMo0VGYHmaQvZPm7uQJ1acTPWFepu72D/NE2mevjWh3v5Ydt+22ZGqUPt3SM+1XjKwf1u3qyhkv3WFeocGSggVT3+RaKFCOP+hI/yxaN3uhZoQzZovXS/UO+KqcyF+bztZVwr1zin7cdm63VuldthUuw8B0DkAqmsh21b3KgtTMCXqxI6FeAJafbCvFcb8+7cysVshptPqF0CthfxN0Vy5FzsVYjgFbb59Ngiz0+amqicidyjE+D172SoNLFXnzfLX0hOmMlZlhDIPXszYIKucPKxpUhEON++lp1fn8iVA3fQhgoPPablyUlXYi4s1lKoyuLq0v0v6UtctVkLk5xlRDWlavTTWFIl5oJ80X650efmHoVA4Umj7OMK0+bKthL0RUDV2KkzUgOJK51iR2KVQZRqtFvaGs0QF2ZkwScSVd+pCfnx3nIKKE9qrIyNsHZDGKnNok/D7xAtPP154+vHC089/BADf/LeGqPIAAAAASUVORK5CYII=;" vertex="1" parent="1">
          <mxGeometry x="369" y="468.38" width="55.62" height="55.62" as="geometry" />
        </mxCell>
        <mxCell id="zo9zDIyggi7vnf_DUEA--27" value="Plugin" style="text;html=1;strokeColor=none;fillColor=none;align=center;verticalAlign=middle;whiteSpace=wrap;rounded=0;" vertex="1" parent="1">
          <mxGeometry x="515" y="347.32" width="60" height="30" as="geometry" />
        </mxCell>
        <mxCell id="zo9zDIyggi7vnf_DUEA--28" value="Plugin" style="text;html=1;strokeColor=none;fillColor=none;align=center;verticalAlign=middle;whiteSpace=wrap;rounded=0;" vertex="1" parent="1">
          <mxGeometry x="340" y="520" width="60" height="30" as="geometry" />
        </mxCell>
        <mxCell id="zo9zDIyggi7vnf_DUEA--29" value="Pipeline" style="text;html=1;strokeColor=none;fillColor=none;align=center;verticalAlign=middle;whiteSpace=wrap;rounded=0;" vertex="1" parent="1">
          <mxGeometry x="386" y="334.65999999999997" width="60" height="30" as="geometry" />
        </mxCell>
        <mxCell id="zo9zDIyggi7vnf_DUEA--30" value="Unit testing" style="text;html=1;strokeColor=none;fillColor=none;align=center;verticalAlign=middle;whiteSpace=wrap;rounded=0;" vertex="1" parent="1">
          <mxGeometry x="571" y="640" width="80" height="30" as="geometry" />
        </mxCell>
        <mxCell id="zo9zDIyggi7vnf_DUEA--31" value="Webhook" style="text;html=1;strokeColor=none;fillColor=none;align=center;verticalAlign=middle;whiteSpace=wrap;rounded=0;" vertex="1" parent="1">
          <mxGeometry x="-65" y="250" width="60" height="30" as="geometry" />
        </mxCell>
        <mxCell id="zo9zDIyggi7vnf_DUEA--32" value="SCM Github" style="text;html=1;strokeColor=none;fillColor=none;align=center;verticalAlign=middle;whiteSpace=wrap;rounded=0;" vertex="1" parent="1">
          <mxGeometry x="10" y="457.5" width="60" height="30" as="geometry" />
        </mxCell>
        <mxCell id="zo9zDIyggi7vnf_DUEA--33" value="AZ, Ohio" style="text;html=1;strokeColor=none;fillColor=none;align=center;verticalAlign=middle;whiteSpace=wrap;rounded=0;" vertex="1" parent="1">
          <mxGeometry x="155.5" y="163" width="60" height="30" as="geometry" />
        </mxCell>
        <mxCell id="zo9zDIyggi7vnf_DUEA--34" value="" style="html=1;verticalLabelPosition=bottom;align=center;labelBackgroundColor=#ffffff;verticalAlign=top;strokeWidth=2;strokeColor=#0080F0;shadow=0;dashed=0;shape=mxgraph.ios7.icons.location;" vertex="1" parent="1">
          <mxGeometry x="126" y="164" width="24" height="30" as="geometry" />
        </mxCell>
        <mxCell id="zo9zDIyggi7vnf_DUEA--35" value="" style="endArrow=classic;startArrow=classic;html=1;rounded=0;exitX=0.945;exitY=0.013;exitDx=0;exitDy=0;exitPerimeter=0;entryX=0.5;entryY=1;entryDx=0;entryDy=0;" edge="1" parent="1" source="zo9zDIyggi7vnf_DUEA--12" target="zo9zDIyggi7vnf_DUEA--11">
          <mxGeometry width="50" height="50" relative="1" as="geometry">
            <mxPoint x="220" y="420" as="sourcePoint" />
            <mxPoint x="270" y="370" as="targetPoint" />
            <Array as="points">
              <mxPoint x="-5" y="400" />
              <mxPoint x="140" y="400" />
              <mxPoint x="140" y="350" />
            </Array>
          </mxGeometry>
        </mxCell>
        <mxCell id="zo9zDIyggi7vnf_DUEA--36" value="" style="endArrow=classic;startArrow=classic;html=1;rounded=0;entryX=0.75;entryY=1;entryDx=0;entryDy=0;exitX=-0.069;exitY=0.597;exitDx=0;exitDy=0;exitPerimeter=0;" edge="1" parent="1" source="zo9zDIyggi7vnf_DUEA--7" target="zo9zDIyggi7vnf_DUEA--12">
          <mxGeometry width="50" height="50" relative="1" as="geometry">
            <mxPoint x="120" y="600" as="sourcePoint" />
            <mxPoint x="170" y="550" as="targetPoint" />
            <Array as="points">
              <mxPoint x="-18" y="594" />
            </Array>
          </mxGeometry>
        </mxCell>
        <mxCell id="zo9zDIyggi7vnf_DUEA--38" value="" style="endArrow=classic;startArrow=classic;html=1;rounded=0;entryX=0.75;entryY=1;entryDx=0;entryDy=0;exitX=0.5;exitY=0;exitDx=0;exitDy=0;" edge="1" parent="1" source="zo9zDIyggi7vnf_DUEA--8" target="zo9zDIyggi7vnf_DUEA--11">
          <mxGeometry width="50" height="50" relative="1" as="geometry">
            <mxPoint x="170" y="470" as="sourcePoint" />
            <mxPoint x="220" y="420" as="targetPoint" />
            <Array as="points">
              <mxPoint x="397" y="420" />
              <mxPoint x="323" y="420" />
            </Array>
          </mxGeometry>
        </mxCell>
        <mxCell id="zo9zDIyggi7vnf_DUEA--42" value="" style="endArrow=classic;startArrow=classic;html=1;rounded=0;exitX=0.5;exitY=0;exitDx=0;exitDy=0;entryX=1;entryY=0;entryDx=0;entryDy=0;" edge="1" parent="1" source="zo9zDIyggi7vnf_DUEA--14" target="zo9zDIyggi7vnf_DUEA--27">
          <mxGeometry width="50" height="50" relative="1" as="geometry">
            <mxPoint x="-10" y="420" as="sourcePoint" />
            <mxPoint x="40" y="370" as="targetPoint" />
            <Array as="points">
              <mxPoint x="610" y="420" />
              <mxPoint x="575" y="420" />
            </Array>
          </mxGeometry>
        </mxCell>
        <mxCell id="zo9zDIyggi7vnf_DUEA--45" style="edgeStyle=orthogonalEdgeStyle;rounded=0;orthogonalLoop=1;jettySize=auto;html=1;exitX=0.5;exitY=1;exitDx=0;exitDy=0;exitPerimeter=0;" edge="1" parent="1" source="zo9zDIyggi7vnf_DUEA--43" target="zo9zDIyggi7vnf_DUEA--3">
          <mxGeometry relative="1" as="geometry" />
        </mxCell>
        <mxCell id="zo9zDIyggi7vnf_DUEA--43" value="" style="outlineConnect=0;dashed=0;verticalLabelPosition=bottom;verticalAlign=top;align=center;html=1;shape=mxgraph.aws3.internet_3;fillColor=#D2D3D3;gradientColor=none;strokeColor=#9933FF;" vertex="1" parent="1">
          <mxGeometry x="380.25" y="26" width="79.5" height="54" as="geometry" />
        </mxCell>
        <mxCell id="zo9zDIyggi7vnf_DUEA--46" style="edgeStyle=orthogonalEdgeStyle;rounded=0;orthogonalLoop=1;jettySize=auto;html=1;exitX=0.5;exitY=1;exitDx=0;exitDy=0;exitPerimeter=0;" edge="1" parent="1" source="zo9zDIyggi7vnf_DUEA--44" target="zo9zDIyggi7vnf_DUEA--43">
          <mxGeometry relative="1" as="geometry" />
        </mxCell>
        <mxCell id="zo9zDIyggi7vnf_DUEA--44" value="" style="sketch=0;aspect=fixed;pointerEvents=1;shadow=0;dashed=0;html=1;strokeColor=none;labelPosition=center;verticalLabelPosition=bottom;verticalAlign=top;align=center;fillColor=#00188D;shape=mxgraph.azure.user" vertex="1" parent="1">
          <mxGeometry x="396.5" y="-88" width="47" height="50" as="geometry" />
        </mxCell>
        <mxCell id="zo9zDIyggi7vnf_DUEA--47" value="DevOps User" style="text;html=1;strokeColor=none;fillColor=none;align=center;verticalAlign=middle;whiteSpace=wrap;rounded=0;" vertex="1" parent="1">
          <mxGeometry x="430" y="-60" width="110" height="30" as="geometry" />
        </mxCell>
        <mxCell id="zo9zDIyggi7vnf_DUEA--49" value="Internet" style="text;html=1;strokeColor=none;fillColor=none;align=center;verticalAlign=middle;whiteSpace=wrap;rounded=0;" vertex="1" parent="1">
          <mxGeometry x="435" y="60" width="110" height="30" as="geometry" />
        </mxCell>
        <mxCell id="zo9zDIyggi7vnf_DUEA--50" value="&lt;span style=&quot;text-align: left ; background-color: rgb(252 , 252 , 252)&quot;&gt;&lt;font style=&quot;font-size: 24px&quot; color=&quot;#000099&quot;&gt;&lt;b&gt;Information Flow between different technologies&lt;/b&gt;&lt;/font&gt;&lt;/span&gt;" style="text;html=1;strokeColor=none;fillColor=none;align=center;verticalAlign=middle;whiteSpace=wrap;rounded=0;" vertex="1" parent="1">
          <mxGeometry x="80" y="820" width="680" height="30" as="geometry" />
        </mxCell>
        <mxCell id="zo9zDIyggi7vnf_DUEA--51" value="" style="endArrow=classic;startArrow=classic;html=1;rounded=0;fontSize=24;fontColor=#000099;exitX=1;exitY=0.25;exitDx=0;exitDy=0;entryX=0.281;entryY=0.563;entryDx=0;entryDy=0;entryPerimeter=0;" edge="1" parent="1" source="zo9zDIyggi7vnf_DUEA--13" target="zo9zDIyggi7vnf_DUEA--11">
          <mxGeometry width="50" height="50" relative="1" as="geometry">
            <mxPoint x="500" y="440" as="sourcePoint" />
            <mxPoint x="550" y="390" as="targetPoint" />
          </mxGeometry>
        </mxCell>
        <mxCell id="zo9zDIyggi7vnf_DUEA--52" value="" style="endArrow=classic;startArrow=classic;html=1;rounded=0;fontSize=24;fontColor=#000099;exitX=0.25;exitY=1;exitDx=0;exitDy=0;entryX=0;entryY=0.75;entryDx=0;entryDy=0;" edge="1" parent="1" source="zo9zDIyggi7vnf_DUEA--12" target="zo9zDIyggi7vnf_DUEA--14">
          <mxGeometry width="50" height="50" relative="1" as="geometry">
            <mxPoint x="500" y="440" as="sourcePoint" />
            <mxPoint x="550" y="390" as="targetPoint" />
            <Array as="points">
              <mxPoint x="-50" y="620" />
            </Array>
          </mxGeometry>
        </mxCell>
      </root>
    </mxGraphModel>
  </diagram>
</mxfile>
